<mxfile host="app.diagrams.net" modified="2023-05-08T06:53:17.188Z" agent="Mozilla/5.0 (Windows NT 10.0; Win64; x64) AppleWebKit/537.36 (KHTML, like Gecko) Chrome/113.0.0.0 Safari/537.36" version="21.2.9" etag="kddeJeeNHmQqGtN_htN7" type="github">
  <diagram name="第 1 页" id="3XybFceKiYxUvr_cAl0I">
    <mxGraphModel>
      <root>
        <mxCell id="0" />
        <mxCell id="1" parent="0" />
      </root>
    </mxGraphModel>
  </diagram>
</mxfile>
